<svg width="25" height="25" viewBox="0 0 25 25" fill="none" xmlns="http://www.w3.org/2000/svg">
<path d="M22.7709 5.23028L19.3072 8.08804V4.51703C19.3072 3.63503 18.5972 2.92053 17.7207 2.92053H6.35116L0.930664 8.37554V20.483C0.930664 21.365 1.64066 22.0795 2.51716 22.0795H17.7207C18.5972 22.0795 19.3072 21.365 19.3072 20.483V17.045L22.7867 19.9163C23.3074 20.326 24.0692 19.9523 24.0692 19.2858V5.84753C24.0692 5.17303 23.2904 4.80303 22.7709 5.23028ZM14.0189 16.6245H6.35116V8.37554H14.0189V12.5V16.6245Z" fill="#F5BB41"/>
<path d="M0.930664 16.6245V20.483C0.930664 21.365 1.64066 22.0795 2.51716 22.0795H6.35117V16.6245H0.930664Z" fill="#2167D1"/>
<path d="M0.930664 8.37549H6.35117V16.6245H0.930664V8.37549Z" fill="#3D84F3"/>
<path d="M22.7709 5.23023L19.3071 8.08798V17.045L22.7866 19.9162C23.3074 20.326 24.0691 19.9522 24.0691 19.2857V5.84748C24.0691 5.17298 23.2904 4.80298 22.7709 5.23023Z" fill="#4CA853"/>
<path d="M14.0188 12.5V16.6245H6.35107V22.0795H17.7206C18.5971 22.0795 19.3071 21.365 19.3071 20.483V17.045L14.0188 12.5Z" fill="#4CA853"/>
<path d="M19.3073 17.0451V8.09082L14.019 12.5001L19.3073 17.0451Z" fill="#398039"/>
<path d="M0.930664 8.37553H6.35117V2.92053L0.930664 8.37553Z" fill="#D74F3F"/>
<path d="M17.7206 2.92053H6.35107V8.37554H14.0188V12.5L19.3071 8.09079V4.51703C19.3071 3.63503 18.5971 2.92053 17.7206 2.92053Z" fill="#F5BB41"/>
</svg>
