<svg width="25" height="25" viewBox="0 0 25 25" fill="none" xmlns="http://www.w3.org/2000/svg">
<path d="M15.9004 5.76562H3.61719C3.12434 5.76635 2.65188 5.96242 2.30335 6.31088C1.95481 6.65934 1.75864 7.13176 1.75781 7.62461V17.3754C1.75864 17.8682 1.95481 18.3407 2.30335 18.6891C2.65188 19.0376 3.12434 19.2337 3.61719 19.2344H15.9004C16.3932 19.2337 16.8656 19.0376 17.2141 18.6891C17.5626 18.3406 17.7586 17.8682 17.7594 17.3754V7.62461C17.7586 7.1318 17.5626 6.65938 17.2141 6.31091C16.8656 5.96244 16.3932 5.76635 15.9004 5.76562ZM13.818 11.8512C13.3947 11.8512 12.9808 11.7256 12.6289 11.4904C12.2769 11.2553 12.0026 10.921 11.8406 10.5299C11.6786 10.1388 11.6363 9.70843 11.7189 9.29325C11.8015 8.87808 12.0054 8.49673 12.3047 8.19743C12.6041 7.89812 12.9855 7.69432 13.4007 7.61178C13.8159 7.52924 14.2462 7.57168 14.6373 7.73373C15.0283 7.89578 15.3626 8.17016 15.5977 8.52217C15.8328 8.87418 15.9583 9.28801 15.9582 9.71133C15.9572 10.2786 15.7313 10.8223 15.3302 11.2234C14.929 11.6245 14.3852 11.8502 13.818 11.8512Z" fill="#365CFF"/>
<path d="M14.7186 9.71136C14.7189 9.89007 14.6663 10.0649 14.5672 10.2136C14.4682 10.3624 14.3272 10.4784 14.1622 10.547C13.9972 10.6155 13.8155 10.6336 13.6402 10.5988C13.4649 10.564 13.3039 10.478 13.1775 10.3516C13.0511 10.2253 12.9651 10.0642 12.9303 9.88895C12.8956 9.71365 12.9136 9.53198 12.9822 9.36695C13.0507 9.20192 13.1668 9.06095 13.3155 8.9619C13.4643 8.86286 13.6391 8.81019 13.8178 8.81058C14.0565 8.8111 14.2853 8.90616 14.4541 9.07498C14.623 9.2438 14.718 9.47262 14.7186 9.71136ZM23.242 8.3766V16.6235C23.242 16.7328 23.2157 16.8405 23.1654 16.9376C23.1151 17.0347 23.0422 17.1182 22.9529 17.1813C22.8608 17.2486 22.7548 17.2947 22.6426 17.316C22.5305 17.3374 22.415 17.3335 22.3045 17.3047L18.999 15.4868V9.51292L22.3045 7.69535C22.415 7.66639 22.5307 7.66247 22.6429 7.6839C22.7552 7.70532 22.8612 7.75154 22.9533 7.81917C23.0425 7.88222 23.1153 7.96575 23.1655 8.06274C23.2157 8.15974 23.242 8.26737 23.242 8.3766Z" fill="#365CFF"/>
</svg>
